<svg xmlns="http://www.w3.org/2000/svg" xmlns:xlink="http://www.w3.org/1999/xlink" width="89.442" height="87.635" viewBox="0 0 89.442 87.635"><defs><linearGradient id="linear-gradient" x1=".725" y1=".291" x2=".008" y2=".946" gradientUnits="objectBoundingBox"><stop offset="0" stop-color="#fdfdfd"/><stop offset="1" stop-color="#d6d6d6"/></linearGradient></defs><g id="Group_1353" data-name="Group 1353" transform="translate(-74.893 -304.908)"><path id="Path_872" data-name="Path 872" d="M161.482 348.232a11.052 11.052.0 0 1-10.016-6.376 11.059 11.059.0 0 1-19.66-9.535 11.055 11.055.0 0 1-11.792-17.04 11.052 11.052.0 0 1-7.533-10.373 44.3 44.3.0 0 0-37.589 43.537c0 24.355 20.022 44.1 44.721 44.1s44.721-19.743 44.721-44.1c0-.191-.005-.382-.007-.573A11.6 11.6.0 0 1 161.482 348.232z" fill="url(#linear-gradient)"/><g id="Group_1331" data-name="Group 1331" transform="translate(104.229 368.027)"><circle id="Ellipse_4" data-name="Ellipse 4" cx="4.675" cy="4.675" r="4.675" transform="translate(0 0)" fill="#fff" opacity=".12" style="isolation:isolate"/><circle id="Ellipse_5" data-name="Ellipse 5" cx="3.934" cy="3.934" r="3.934" transform="translate(0.379 0.739)" fill="#bfbfbe"/><circle id="Ellipse_6" data-name="Ellipse 6" cx="3.934" cy="3.934" r="3.934" transform="translate(0.934 0.727)" fill="#dadada"/></g><g id="Group_1332" data-name="Group 1332" transform="translate(139.86 368.378)"><circle id="Ellipse_7" data-name="Ellipse 7" cx="4.672" cy="4.672" r="4.672" transform="translate(0 0)" fill="#fff" opacity=".12" style="isolation:isolate"/><circle id="Ellipse_8" data-name="Ellipse 8" cx="3.932" cy="3.932" r="3.932" transform="translate(0.747 0.392)" fill="#bfbfbe"/><circle id="Ellipse_9" data-name="Ellipse 9" cx="3.932" cy="3.932" r="3.932" transform="translate(0.75 0.927)" fill="#dadada"/></g><g id="Group_1333" data-name="Group 1333" transform="translate(119.165 343.155)"><circle id="Ellipse_10" data-name="Ellipse 10" cx="7.397" cy="7.397" r="7.397" transform="translate(0)" fill="#fff" opacity=".22" style="isolation:isolate"/><circle id="Ellipse_11" data-name="Ellipse 11" cx="6.19" cy="6.19" r="6.19" transform="translate(1.197 0.636)" fill="#bfbfbe"/><circle id="Ellipse_12" data-name="Ellipse 12" cx="6.19" cy="6.19" r="6.19" transform="translate(1.2 1.478)" fill="#dadada"/></g><g id="Group_1334" data-name="Group 1334" transform="translate(84.473 343.74)"><circle id="Ellipse_13" data-name="Ellipse 13" cx="5.882" cy="5.882" r="5.882" transform="translate(0 0)" fill="#fff" opacity=".12" style="isolation:isolate"/><circle id="Ellipse_14" data-name="Ellipse 14" cx="4.908" cy="4.908" r="4.908" transform="translate(0.584 0.742)" fill="#bfbfbe"/><circle id="Ellipse_15" data-name="Ellipse 15" cx="4.908" cy="4.908" r="4.908" transform="translate(1.169 1.09)" fill="#dadada"/></g><g id="Group_1335" data-name="Group 1335" transform="translate(95.879 320.988)"><circle id="Ellipse_16" data-name="Ellipse 16" cx="4.944" cy="4.944" r="4.944" transform="translate(0)" fill="#fff" opacity=".12" style="isolation:isolate"/><circle id="Ellipse_17" data-name="Ellipse 17" cx="4.126" cy="4.126" r="4.126" transform="translate(0.841 0.409)" fill="#bfbfbe"/><circle id="Ellipse_18" data-name="Ellipse 18" cx="4.126" cy="4.126" r="4.126" transform="translate(0.794 0.98)" fill="#dadada"/></g></g></svg>