<svg xmlns="http://www.w3.org/2000/svg" xmlns:xlink="http://www.w3.org/1999/xlink" width="219" height="438" viewBox="0 0 219 438"><defs><linearGradient id="linear-gradient" x1=".761" y1=".115" x2=".188" y2=".893" gradientUnits="objectBoundingBox"><stop offset="0" stop-color="#00bc81"/><stop offset="1" stop-color="#00caba"/></linearGradient><linearGradient id="linear-gradient-2" x1=".205" y1=".839" x2=".758" y2=".204" gradientUnits="objectBoundingBox"><stop offset="0" stop-color="#5619d5"/><stop offset=".994" stop-color="#a41bff"/></linearGradient><linearGradient id="linear-gradient-3" x1=".784" y1=".115" x2=".21" y2=".893" gradientUnits="objectBoundingBox"><stop offset="0" stop-color="#ff9dab"/><stop offset="1" stop-color="#bf1932"/></linearGradient><clipPath id="clip-Watch_38mm_1"><path d="M0 0h219v438H0z"/></clipPath></defs><g id="Watch_38mm_1" data-name="Watch 38mm – 1" clip-path="url(#clip-Watch_38mm_1)"><path d="M0 0h219v438H0z" fill="#fff"/><g id="Ellipse_141" transform="translate(-83 137.208)"><ellipse id="Ellipse_181" data-name="Ellipse 181" cx="81.5" cy="81" rx="81.5" ry="81" fill="none"/><path id="Path_845" data-name="Path 845" d="M81.5 1C126 1 162 36.8 162 81s-36 80-80.5 80" fill="none" stroke="#a9a9a9" stroke-width="2" stroke-dasharray="5 6"/></g><path id="Path_846" data-name="Path 846" d="M149.5 1C231.5 1 298 67.7 298 150S231.5 299 149.5 299" transform="translate(-151 68.208)" fill="none" stroke="#a9a9a9" stroke-width="2" stroke-dasharray="6 8"/><g id="Path_836" transform="translate(-219.207)"><path id="Path_847" data-name="Path 847" d="M218.1 436.2c120.5.0 218.1-97.6 218.1-218.1S338.6.0 218.1.0" fill="none"/><path id="Path_848" data-name="Path 848" d="M218.1.0h5V2c-1.6.0-3.3-.1-5-.1V0zm15 .5c.4.0.8.1 1.2.1h.7a2.768 2.768.0 0 1 .9.1H238l-.2 2c-1.6-.1-3.3-.3-4.9-.4zM248 2h.2c.7.1 1.4.2 2 .3h0c.2.0.4.1.6.1h.7c.2.0.5.1.7.1l-.3 2c-1.6-.3-3.3-.5-4.9-.7zm14.8 2.6 4.2.9h.2c.1.0.2.1.4.1l-.5 1.9c-1.6-.4-3.2-.7-4.8-1.1l.5-1.8zm14.6 3.5h.1c.9.3 1.8.5 2.8.8h.4c.5.1.9.3 1.4.4l-.6 1.9c-1.6-.5-3.2-1-4.8-1.4zm14.2 4.6c.6.2 1.3.5 1.9.7h.5a13.353 13.353.0 0 1 1.8.7h.2c.1.0.2.1.3.1l-.7 1.9c-1.5-.6-3.1-1.2-4.6-1.7zm14 5.6c1.3.6 2.7 1.2 4 1.8h.3c.1.0.1.1.2.1l-.8 1.8c-1.5-.7-3-1.4-4.5-2zm13.5 6.4c1.1.6 2.1 1.1 3.2 1.7h.3c.2.1.5.3.7.4l-1 1.8c-1.4-.8-2.9-1.6-4.4-2.3zm13 7.5c.8.5 1.5 1 2.3 1.4h.2c.5.3 1 .7 1.5 1L335 36.3c-1.4-.9-2.8-1.8-4.2-2.6zm12.5 8.2c1.4 1 2.7 2 4 3L347.4 45c-1.3-1-2.7-2-4-2.9zm11.9 9.2 2.1 1.8h.2a5.716 5.716.0 0 1 .8.7h.4l-1.3 1.5c-1.2-1.1-2.5-2.1-3.8-3.2l1.6-.8zm11.3 9.9h0c.1.0.1.1.0.0l.1.1h0l.1.1h0c1.1 1.1 2.2 2.1 3.3 3.2l-1.4 1.4c-1.2-1.2-2.4-2.3-3.6-3.4zm10.5 10.6c.5.6 1 1.1 1.5 1.7h0l.1.1h0V72h0a12.67 12.67.0 0 1 1.1 1.3l-1.5 1.3c-1.1-1.2-2.2-2.5-3.3-3.7l2.1-.8zm9.8 11.4c.1.1.2.3.3.4h0l.1.1h0v.1h0l.2.2h0v.1h0v.1h0v.1h0v.1h0v.1h0v.1h0V83h0v.1h0v.1h0a4.233 4.233.0 0 1 .5.7l-1.6 1.2c-1-1.3-2-2.6-3.1-3.9zm9 12c.1.1.1.2.2.3h0v.1h0V94h0c.1.1.1.2.2.3h0v.1h0v.1h0c.5.8 1 1.5 1.5 2.3l-1.7 1.1c-.9-1.4-1.8-2.7-2.8-4.1zm8.2 12.6h0c.9 1.5 1.7 2.9 2.5 4.3l-1.7 1c-.8-1.4-1.7-2.9-2.5-4.3zm7.2 13.1c.1.3.3.5.4.8h0v.1h0v.1h0v.1h0v.1h0v.1h0v.1h0v.1h0v.1h0v.1h0v.1h0v.1h0c0 .1.1.2.1.3h0v.1h0v.1h0v.1h0v.1h0v.1h0v.1h0v.1h0v.1h0c.3.7.7 1.3 1 2l-1.8.9c-.7-1.5-1.5-3-2.2-4.4l2.5-1.5zm6.4 13.6c.7 1.5 1.3 3.1 1.9 4.6l-1.9.7c-.6-1.5-1.2-3.1-1.9-4.6l1.9-.7zm5.4 14c.1.4.3.8.4 1.2h0v.1h0v.1h0v.1h0c.3 1 .7 2 1 3l-1.9.6c-.5-1.6-1-3.1-1.6-4.7l2.1-.4zm4.4 14.3.9 3.3h0a2.92 2.92.0 0 1 .2.9h0v.1h0v.1h0v.2h0a.367.367.0 0 0 .1.3l-1.9.5-1.2-4.8zm3.4 14.6c.3 1.6.6 3.3.9 4.9l-2 .3c-.3-1.6-.6-3.3-.9-4.9zm2.4 14.8h0v.1h0v.1h0c.2 1.2.3 2.4.4 3.7h0v.1h0v.1h0v.1h0a1.268 1.268.0 0 0 .1.6l-2 .2c-.2-1.6-.4-3.3-.6-4.9zm1.3 15v.3h0v.1h0v.1h0v.1h0v.2h0v.1h0v.1h0v.1h0v.1h0c0 .9.1 1.9.1 2.8h0v.1h0v.1h0v.1h0l-2 .1c-.1-1.6-.1-3.3-.2-4.9l2.1.5zm-1.6 14.9h2c0 1.7-.1 3.3-.1 5l-2-.1C434.1 223.8 434.2 222.1 434.2 220.4zm-.7 14.9 2 .2h0v.1h0c-.1.8-.1 1.6-.2 2.4h0v.1h0v.3h0v.1h0v.1h0v.1h0v.1h0v.1h0v.1h0v.1h0v.2h0v.1h0v.1h0v.1h0c0 .3-.1.7-.1 1l-2-.2Q433.35 237.7 433.5 235.3zm-1.6 14.8 2 .3h0v.1h0c0 .2-.1.5-.1.7h0v.1h0v.1h0v.1h0v.1h0v.1h0v.1h0v.1h0v.1h0v.1h0v.1h0v.1h0c-.2 1-.3 2.1-.5 3.1l-2-.3A38.027 38.027.0 0 1 431.9 250.1zm-2.7 14.6 2 .4a.367.367.0 0 1-.1.3h0v.1h0v.1h0c0 .1-.1.2-.1.4h0v.1h0v.1h0v.2h0v.1h0v.1h0v.1h0c0 .1.0.1-.1.2h0v.1h0v.1h0v.1h0v.1h0v.1h0v.1h0v.1h0v.1h0c0 .2-.1.4-.1.6h0v.1h0v.1h0v.1h0c0 .2-.1.4-.1.6l-1.9-.5C428.4 267.9 428.8 266.3 429.2 264.7zm-3.7 14.4 1.9.6-.9 3h0v.1h0v.1h0v.1h0v.1h0v.1h0v.1h0v.1h0v.1h0a3.583 3.583.0 0 1-.4 1.1l-1.9-.6A31.709 31.709.0 0 1 425.5 279.1zm-4.7 14.1 1.9.7c-.1.4-.3.8-.4 1.2h0v.1h0v.1h0v.1h0v.1h0v.1h0c-.1.2-.2.5-.3.7h0c0 .1.0.1-.1.2h0v.1h0v.1h0v.1h0v.1h0c-.1.2-.1.3-.2.5h0v.1h0v.1h0v.1h0c-.1.1-.1.3-.2.4l-1.9-.7A13.587 13.587.0 0 1 420.8 293.2zm-5.6 13.7 1.8.8-2.1 4.5-1.8-.9C413.8 309.9 414.5 308.4 415.2 306.9zm-6.6 13.3 1.8.9c-.8 1.5-1.6 2.9-2.4 4.4h0l-1.7-1C407 323.1 407.8 321.7 408.6 320.2zm-7.5 12.9 1.7 1.1a6.726 6.726.0 0 1-.7 1.1h0v.1h0v.1h0v.1h0v.1h0c-.1.1-.1.2-.2.3h0v.1h0v.1h0v.1h0v.1h0v.1h0v.1h0v.1h0v.1h0v.1h0v.1h0c-.3.4-.5.8-.8 1.2h0v.1h0c-.1.1-.2.3-.3.4l-1.7-1.1A10.757 10.757.0 0 1 401.1 333.1zm-8.3 12.3 1.6 1.2c-.1.1-.2.2-.2.3h0v.1h0v.1h0c-.5.6-.9 1.2-1.4 1.8h0v.1h0c-.2.3-.4.5-.6.8l-1.6-1.2A18.436 18.436.0 0 1 392.8 345.4zm-9.2 11.7 1.5 1.3c-1.1 1.3-2.2 2.5-3.3 3.8l-1.5-1.3C381.5 359.6 382.5 358.3 383.6 357.1zm-9.9 11 1.4 1.4h0c-1.1 1.2-2.3 2.3-3.4 3.5h0l-1.4-1.4C371.3 370.5 372.5 369.3 373.7 368.1zM363 378.5l1.3 1.5c-.2.2-.4.3-.5.5h-.3c-.6.5-1.2 1.1-1.9 1.6h-.1l-.3.3-1.3-1.5A14.375 14.375.0 0 0 363 378.5zM351.6 388l1.2 1.6a10.594 10.594.0 0 0-1.2 1h-.3c-.2.2-.4.3-.6.5h-.8a5.5 5.5.0 0 0-.9.7l-1.2-1.6C349 390.1 350.3 389.1 351.6 388zm-12 8.8 1.1 1.7c-1.4.9-2.8 1.9-4.2 2.8l-1.1-1.7C336.9 398.7 338.3 397.7 339.6 396.8zm-12.5 8 1 1.7c-1.1.7-2.3 1.3-3.4 2h-.2c-.2.1-.3.2-.5.3l-1-1.7C324.2 406.4 325.7 405.6 327.1 404.8zm-13.1 7 .9 1.8c-1.4.7-2.8 1.4-4.2 2h-.3l-.8-1.8C311 413.3 312.5 412.5 314 411.8zM300.5 418l.8 1.8c-.9.4-1.7.7-2.6 1.1h-.5c-.4.2-.9.3-1.3.5l-.7-1.9A37.362 37.362.0 0 0 300.5 418zm-14 5.1.6 1.9c-1.3.4-2.5.8-3.8 1.2h-.7c-.1.0-.2.0-.2.1h-.1l-.6-1.9A18.883 18.883.0 0 0 286.5 423.1zm-14.2 4.3.5 1.9h-.6a.367.367.0 0 0-.3.1h-.8a.367.367.0 0 0-.3.1h-.4c-.8.2-1.6.4-2.5.6l-.5-1.9A20.074 20.074.0 0 0 272.3 427.4zm-14.5 3.2.4 2c-1.6.3-3.3.6-4.9.9l-.3-2C254.5 431.2 256.2 430.9 257.8 430.6zm-14.7 2.2.2 2c-1.2.1-2.5.3-3.7.4h-.5a2.2 2.2.0 0 0-.8.1l-.2-2C239.8 433.1 241.5 433 243.1 432.8zM228.3 434l.1 2h-.8a7.568 7.568.0 0 0-1.5.1h-2.4v-2C225 434.1 226.6 434 228.3 434z" fill="#a9a9a9"/></g><g id="_6" data-name="6" transform="translate(13.4 54.533)"><g id="Group_1330" data-name="Group 1330" transform="translate(91.6 84)" opacity=".1"><circle id="Ellipse_186" data-name="Ellipse 186" cx="35.434" cy="35.434" r="35.434" fill="#00ec9a"/></g><g id="Group_1331" data-name="Group 1331" transform="translate(94.41 86.81)" opacity=".1"><circle id="Ellipse_187" data-name="Ellipse 187" cx="32.624" cy="32.624" r="32.624" transform="translate(0 0)" fill="#00ec9a"/></g><g id="Group_1332" data-name="Group 1332" transform="translate(97.245 89.645)"><circle id="Ellipse_188" data-name="Ellipse 188" cx="29.788" cy="29.788" r="29.788" transform="translate(0 0)" fill="url(#linear-gradient)"/></g><path id="Path_855" data-name="Path 855" d="M163.459 119.71a7.648 7.648.0 0 0-1.327-.6 3.714 3.714.0 0 0-1.3-1.587c-.156-.1-.312-.234-.468-.338a12.781 12.781.0 0 0-3.668-1.561c-2.524-.728-5.151-1.015-6.946-1.873l.156.52c-.989.364-1.119-.39-1.821-.572.078.39.989.52.39.728a82.465 82.465.0 0 0-12.1.7 48.643 48.643.0 0 0-6.036 1.223 32.84 32.84.0 0 0-5.906 2.159 2.628 2.628.0 0 0-1.613 2.211 2.185 2.185.0 0 1-.52 1.041 5.46 5.46.0 0 1-1.8 1.041c.078-.338.156-.676.234-1.041a29.781 29.781.0 0 0-3.876 33.821c.39.364.728.833 1.119 1.249.624.7 1.275 1.223 1.8.885-.468.416.208 1.3 1.3 2a7.168 7.168.0 0 0 3.278 1.171c-.624.156 1.067.832.338 1.119 1.639.6 3.252.728 3.1.052a5.558 5.558.0 0 0 4.345.859c1.379-.156 2.5-.39 3.408.52a46.138 46.138.0 0 0 6.686-1.847 44.511 44.511.0 0 0 5.906-2.576c.182.6-.885 1.093-1.951 1.535-1.067.416-2.081.754-1.821 1.353a24.746 24.746.0 0 0 4.579-2.732c1.327-.963 2.628-1.9 4.345-3.044.937-.546-.13.807-.338 1.2.807-.728 1.561-1.457 2.315-2.211a22.215 22.215.0 0 0 2.029-2.419 14.134 14.134.0 0 0 .833-1.327c.26-.468.468-.937.676-1.4.156-.494.338-.963.468-1.457a7.272 7.272.0 0 0 .208-1.483c-.442.26-.65-.52-.859-1.353-.13-.468-.234-.937-.364-1.3a1.476 1.476.0 0 0-.364-.676c.754.624.963-.234 1.067-1.067a1.891 1.891.0 0 1 .312-.963c.182-.182.494-.156 1.041.338-.156-.494-.468-1.093-.833-.937.026-.728.182-1.015.728-.312a7.123 7.123.0 0 0-.52-1.4 3.862 3.862.0 0 0-.468-.65 5.2 5.2.0 0 1-.885-1.769c.26-.078.52.338.885.494a14.446 14.446.0 0 1-2.654-3.72c.156.026.234-.208.442.052a10.865 10.865.0 0 0-3.33-3.07c-1.275-.833-2.55-1.535-4.006-2.628.754-.234.546-.494.156-.78s-.937-.624-.833-1.119l-1.015-.26-1.015-.208.6.754a9.221 9.221.0 0 0-2.445-.468c-.39-.026-.78-.052-1.145-.1a5.551 5.551.0 0 1-1.093-.26c.442-.052.885-.13 1.327-.182a22.789 22.789.0 0 0-3.252-.234c.6.156 1.2.364 1.769.546-.885.156-.859.494-.911.7-.052.234-.13.312-1.2.1.442-.1-1.587-.078-2.5-.572h0a5.768 5.768.0 0 1-2.784.833c-.39-.26.0-1.145-.26-1.327-.312.52-1.275.806-2.237 1.223s-1.9.989-2.107 1.639a.709.709.0 0 0-.208-.885c-.1.338-.182.624-.26.963-.78.234-.963.234-1.093-.182-1.067.7-.676.859-.416.963.286.13.442.208-.78.963.13-.182-.026-.208.26-.6a9.118 9.118.0 0 0-2.654 3.2c-.65 1.171-1.145 2.341-1.769 3.486-.624.182-.468-.39-.286-.937.182-.52.416-1.041-.156-.833a14.971 14.971.0 0 0-1.119 5.88 18.733 18.733.0 0 0 .208 2.966 26.436 26.436.0 0 0 .546 2.862 6.444 6.444.0 0 1-.078-.7.768.768.0 0 1 .676.52 2.623 2.623.0 0 1 .1.52q.039.273.078.624a3.227 3.227.0 0 0 1.275 2.628c-.39-.286-1.041.0-.833.0a7.222 7.222.0 0 0 3.434 2.732 14.546 14.546.0 0 0 4.969.989l-.52.286a8.91 8.91.0 0 0 2.6.6c.963.1 1.925.13 2.706.208.468-.364 1.327-.364.78-.859a7.791 7.791.0 0 0 6.868-.859 27.116 27.116.0 0 0 2.836-1.925c.885-.65 1.8-1.353 2.836-2.055a2.992 2.992.0 0 0-.39.754c-.078.208-.078.338.078.156a10.578 10.578.0 0 0 1.743-3.668 1.076 1.076.0 0 0-.624.26 3.042 3.042.0 0 1-.7.6 3.208 3.208.0 0 1 0-1.119 7.14 7.14.0 0 1 .208-1.3c.026.806.208.885.546.676a4.6 4.6.0 0 0 .937-1.145c-.208.1-.39-.182-.6-.156a1.221 1.221.0 0 0 .39-.911c-.052-.182-.208-.234-.39-.338a.813.813.0 0 1-.494-.442 2.74 2.74.0 0 1-.078-1.249l.364.078a5.465 5.465.0 0 0-.338-.676c-.13-.208-.286-.416-.416-.6a9.8 9.8.0 0 1-.833-1.2c.182-.39.39-.234.624.026.26.234.468.6.754.494a2.358 2.358.0 0 0-.338-.494c-.156-.156-.312-.286-.468-.416a4.516 4.516.0 0 0-1.015-.6 3.425 3.425.0 0 1-1.639-1.223 8.022 8.022.0 0 1 1.977 1.041 3.251 3.251.0 0 0-.806-1.561 7.445 7.445.0 0 0-1.093-.806l.1.078a12.961 12.961.0 0 0-2.393-1.379c.208.13.39.286.6.416a4.834 4.834.0 0 1-3.122.364 4.447 4.447.0 0 0-3.252.6c1.067-.728 1.223-.859 1.015-.989-.182-.1-.676-.156-.6-.572-.676-.182-1.769-.234-1.535-.494a3.336 3.336.0 0 1-1.717.546 2.753 2.753.0 0 0-1.925 1.171c-.1-.1-.416.052-.728.182-.286.13-.6.182-.65-.182-.728.624-.546.676-.208.572.338-.078.833-.234.859-.052a14.084 14.084.0 0 1-1.535 1.509 9.345 9.345.0 0 0-1.691 1.9 5.94 5.94.0 0 0-.989 2.784 4.374 4.374.0 0 0 .937 3.122 2.344 2.344.0 0 1 .234.26 4.816 4.816.0 0 0 1.821 1.431 4.234 4.234.0 0 0 1.561.338 12.214 12.214.0 0 0 3.044-.338c.442.182.286.442.0.65a2.4 2.4.0 0 1-.728.312 4.321 4.321.0 0 0 2.133.13 5.2 5.2.0 0 0 1.847-.78c-.182.312.156.416.676.52a1.405 1.405.0 0 0 .728-.833c.13-.286.312-.494 1.093-.833a2.981 2.981.0 0 1-.52 1.613 5.967 5.967.0 0 0 1.691-1.951 4.453 4.453.0 0 0 .494-2.758c.208-.26.442.0.546.52a5.36 5.36.0 0 1-.026 1.587 4.451 4.451.0 0 0 .312-2.081 3.666 3.666.0 0 0-.989-2.237 2.748 2.748.0 0 0-1.613-.833 1.319 1.319.0 0 0-.937.156 4.7 4.7.0 0 1 .754.494.2.2.0 0 1 .026-.286.679.679.0 0 1 .728-.1 2.012 2.012.0 0 1 1.145.833 1.739 1.739.0 0 1 .338 1.015.918.918.0 0 1-.442.859 2.9 2.9.0 0 0-.52-1.2 5.193 5.193.0 0 0-.26 1.327 6.854 6.854.0 0 1-.26 1.483 4.252 4.252.0 0 1-2.289 2.524 8.109 8.109.0 0 0 .208-1.353 10.066 10.066.0 0 1-1.4 1.613c-.494-.156-.911-.676-.13-1.119a1.65 1.65.0 0 0-1.145.234.9.9.0 0 1-1.015.026c-.13-.078-.078-.156.026-.208a5.584 5.584.0 0 1-1.171.364c.234-.234-.13-.807.52-.624a7.516 7.516.0 0 0-1.249-.286c-.364-.052-.7-.078-1.015-.13-.624-.1-1.119-.312-1.041-.833l.156.052c-.572-.39-.78-.676-.989-.7-.234-.1-.364.052-.6.13a.561.561.0 0 1-.442-.052 1.981 1.981.0 0 1-.7-.754 4.558 4.558.0 0 1 2.029-1.483c-.26-.13-.52-.26-.78-.416.078-.286.338-.806.624-.572-.052-.572-.13-.6-.26-.546s-.286.182-.364-.234c.676-.52 1.223-1.3 1.951-1.873.7-.572 1.431-.833 1.847-.312.1-.39-.26-.364-.52-.338-.234.026-.39.0.26-.572.52.546.885.312 1.379.0a2.2 2.2.0 0 1 1.9-.52c-.312.78-1.561.65-.182 1.041.26-.676.963-.7 1.639-.52a6.7 6.7.0 0 0 1.873.494c.078-.494.7-.52 1.535-.312a19.423 19.423.0 0 1 2.628 1.015c-.156.1.546.676 1.067 1.509a5.236 5.236.0 0 1 .6 1.353 3.91 3.91.0 0 1 .1 1.3l-.182-.026a.819.819.0 0 1 .6.364 1.733 1.733.0 0 1 .26.78 7.446 7.446.0 0 1-.156 2 1.284 1.284.0 0 1-.833-1.145 7.409 7.409.0 0 1-.286 1.015 1.158 1.158.0 0 1 .182.6 1.958 1.958.0 0 1-.182.859c-.182-.208-.338-.416-.52-.6a17.01 17.01.0 0 1-.937 2 3.634 3.634.0 0 1-2.081 1.561c.1.338.7.546 1.093.859a.659.659.0 0 1 .286.572 1.73 1.73.0 0 1-.78.963c-.26-.286-.6-.832-.13-1.249-.156.13-.494.624-.937.624a9.03 9.03.0 0 0 .546-.963c-.494.1-.546.26-.572.442a.511.511.0 0 1-.416.52c-.182-.494-.676-.156-.728-.6.156-.1.7-.026.885-.338a3 3 0 0 1-2.315-.078.591.591.0 0 1-.416.911c-1.613.338-.676-.52-1.639-.65-.338.442-1.4.13-1.379.937-.494.026-.6-.364-.78-.572a8.289 8.289.0 0 1-2.211.26c-.78.052-1.353.13-.885.6l.208.078c-.052.026-.1.0-.156.026a6.9 6.9.0 0 1-4.319-.754 18.7 18.7.0 0 1-3.356-2.367l.208-.182a5.917 5.917.0 0 1-1.561-1.821c-.416-.7-.7-1.431-1.093-1.977a1.385 1.385.0 0 1 .182-.78c.156-.208.338-.338.52-.26a10.514 10.514.0 0 1-.312-1.353 3.818 3.818.0 0 1 .052-.728 6.728 6.728.0 0 1 .338-1.041c.286 1.3.442-.364.182 1.3.182-.78.442-1.223.572-1.691a4.551 4.551.0 0 0 .1-1.9c.234.39.546.182.78-.208a3.951 3.951.0 0 0 .572-1.327c-.312.26-.624.52-.911.807a7.29 7.29.0 0 1 1.067-2.107c.182.26.39.546.6.807a11.709 11.709.0 0 0 2.289-3.408c.65-1.093 1.665-2.029 3.07-1.613.26-.442-.182-.39-.624-.338-.442.078-.911.156-.754-.338a4.1 4.1.0 0 1 2.237-.1 7.671 7.671.0 0 0 1.431.286 2.155 2.155.0 0 0 1.8-.728 2.818 2.818.0 0 1 .754-.546 1.9 1.9.0 0 1 1.249-.1.823.823.0 0 1-.182-.754c.1-.286.468-.6 1.353-.7 1.639.286 1.743 1.587.78 1.717-.364.0-.52-.13-.494-.234-.494.078-1.119.182-.572.572l.208-.312c.728.364 2.68.676 2.107 1.119 1.041-.052.65-.364-.052-.676.39.156.728.312 1.067.416a10 10 0 0 0 1.067.338 6.818 6.818.0 0 1 2.159 1.041c-.182-.286-.26-.78.0-.624a8.253 8.253.0 0 0 1.223.754.967.967.0 0 0 .572.078 2.475 2.475.0 0 1 .468-.1 1.437 1.437.0 0 1 .885.39c.286.546.026.7-.1.859-.1.156-.078.26.754.754.546 1.067-.468.754-.937.65a2.593 2.593.0 0 1 1.431 1.639c.234.65.234 1.275.39 1.691-.182-.208-.416-.364-.624-.572a2.524 2.524.0 0 1 .442.494c.1.182.182.364.286.546.13-.234.26-.468.364-.7.13.494.286.859.026.963.286.156.494-.052.754-.182a.794.794.0 0 1 1.015.156 1.992 1.992.0 0 0 .1.65c.078.234.182.468.26.7a1.539 1.539.0 0 1 .1.65.556.556.0 0 1-.312.442c-.078-1.119-.312-.989-.52-.833-.208.13-.416.286-.65-.1a3.727 3.727.0 0 1 .13.833c-.078.078-.182-.026-.26-.156-.182 1.015.052 1.171.416 1.353a1.341 1.341.0 0 1 .807 1.483c-.468-.26-.937.442-.859.754.026-.39.234-.468.468-.364a1.453 1.453.0 0 1 .65.859c-.572 1.3.0 1.535-.26 2.237.13-.26.286-.494.416-.754.39.39.156 1.093-.1 2.107-.364-.078.1-.963-.182-.676.208.676-.286 1.2-.859 1.639-.286.234-.572.442-.859.676a2.28 2.28.0 0 0-.624.911c-.728.312-.728-.546-1.275-.286a1.745 1.745.0 0 1-1.275 1.119 4.958 4.958.0 0 0-.728.26 2.91 2.91.0 0 0-.806.676c.754.26.806.078.0 1.3a14.244 14.244.0 0 0 2.211-2.107 12.432 12.432.0 0 1-1.015 1.925c.807-.52 1.353-1.483 1.821-1.8-.338 1.015-.416.833.312.963a1.682 1.682.0 0 0-.989.364 4.818 4.818.0 0 0-.728.728 2.875 2.875.0 0 1-1.847 1.2l-.7-1.457a7.134 7.134.0 0 0-2.862 1.379 7.719 7.719.0 0 1-3.538 1.4c.338.0.676.026 1.015.026-.234.728-1.821.546-2.732.989.0-.546-.65-.624-1.093-.911.052.208-.494.26-1.067.416s-1.171.364-1.275.911c-.468-.208-.911-.416-1.353-.65a4.138 4.138.0 0 0-2.55.546 3.163 3.163.0 0 1-2.6.312c.806-.442-.13-.989 1.4-1.145-.728-.1-1.353-.364-1.431.0-.182-.208-.7-.156-1.275-.182-.572.0-1.171-.078-1.4-.468-.39.1-.7.572-1.483.156a.159.159.0 0 1 .078-.182c-.26.13-1.3-.286-.937.52-.676-1.327-2-2.185-3.174-3.3-1.171-1.067-2.107-2.419-1.925-3.642a14.708 14.708.0 0 1-2.029-4.761c.182.078.26-.052.26.234a2.172 2.172.0 0 0-.208-1.093 2.275 2.275.0 0 0-.572-.546c-.416-.312-.859-.7-.624-1.977.442-.65.546-.312.6.078.078.39.078.807.208.416.885-.208.78-.885.676-1.769a3.2 3.2.0 0 1 .39-2.628l.052.39a2.122 2.122.0 0 0 .338-.937c.026-.364.026-.754.026-1.171a5.611 5.611.0 0 1 .494-2.706s.1.156.234.13a5.6 5.6.0 0 1 .442-2.862 12.813 12.813.0 0 1 1.639-2.862c.078.937-.312.911.442 1.119.234-.364.0-.494-.182-.728s-.312-.572.286-1.275c.7-.156 1.9-.754 2.5-.234a16.131 16.131.0 0 0-1.2 1.093 1.378 1.378.0 0 0 1.327-.676c.338-.416.624-.911 1.041-1.067l.156.416a8.885 8.885.0 0 0 1.8-1.925 4.821 4.821.0 0 1 2.237-1.691l-.39-.156c.468-.806.859-.806 1.223-.754a1.226 1.226.0 0 0 1.327-.52l.807.859a21.884 21.884.0 0 1 4.865-2.706c-.859 1.015-2.81 1.951-3.876 2.836.937-.312 3.2-1.041 3.59-1.665-.364.182-.806.572-1.223.52a6.9 6.9.0 0 1 4.553-2.211c-.026 1.067 1.275.989 2.784.963 1.509-.052 3.252.0 3.9.859a10.128 10.128.0 0 1 5.047.546c1.665.546 3.226 1.327 4.969 2.081-.26-1.015-.026-.911.39-.754.39.182.911.416 1.2-.364.885.338 1.171.572 1.2.7l-.13-.156c.052.078.078.1.13.182h0c.338.39.624.806.911 1.171.286.416.572.806.833 1.223.1.39-.13.338-.39.234-.286-.1-.6-.26-.676-.078.754.6.754.911.728 1.145a1.079 1.079.0 0 0 .13 1.015c.1-.312.364-.364.676-.234a1.863 1.863.0 0 1 .494.338 3.993 3.993.0 0 1 .468.6l-.26-.807-.312-.806a5.208 5.208.0 0 1 .78.442 2.523 2.523.0 0 1 .442.494 2.243 2.243.0 0 1 .338.989 3.549 3.549.0 0 0 .286.989 3.145 3.145.0 0 0 1.015 1.093c-.312-.13-.572-.26-.885-.364a5.828 5.828.0 0 1 .859.989c.286.442.65.937.937 1.431l.26.364c.078.13.156.26.234.364.156.26.338.468.494.7a4.32 4.32.0 0 0 1.119 1.067c-.13.286-.494.7-.754.182.338 1.535.937 3.226 1.223 5a7.745 7.745.0 0 1-.39 4.761l-.364-.338c.026.624.52 1.249-.078 1.925-.156-.078-.312-.338-.416-.078a8.541 8.541.0 0 1 .078 1.145 3.148 3.148.0 0 1-.364 1.431l-.208-.832a12.155 12.155.0 0 0-1.249 4.006 11.477 11.477.0 0 1-1.093 3.85c-.494-.338-1.2.0-1.9.52-.7.494-1.431 1.171-1.925 1.587l-.1-.156c-1.3 1.379-2.289 2.654-3.33 3.876a18.674 18.674.0 0 1-3.642 3.486c-1.3-.078-3.07.572-5.073 1.119a20.77 20.77.0 0 1-6.166.937c.6.13.052.937-.6 1.145-.911-.1-2.367 1.093-2.341.0h.312c-.754-1.015-2.55-.6-3.98-.572l-.182 1.457a8.943 8.943.0 0 0-4.084-.754 29.775 29.775.0 0 0 41.287-27.473A29.19 29.19.0 0 0 163.459 119.71z" transform="translate(-16.055 -21.973)" fill="#314d89" opacity=".3"/><g id="Group_1333" data-name="Group 1333" transform="translate(97.271 93.496)" opacity=".78"><path id="Path_856" data-name="Path 856" d="M172.794 143.81a22.1 22.1.0 0 1-1.769 9.34c-5.385 12.384-21.229 17.431-35.408 11.291-14.179-6.166-21.281-21.177-15.9-33.586a22.115 22.115.0 0 1 9.366-10.354 29.782 29.782.0 1 0 43.889 26.224C172.924 145.735 172.872 144.773 172.794 143.81z" transform="translate(-113.4 -120.5)" fill="#2b5589" opacity=".22"/></g></g><g id="_4" data-name="4" transform="translate(-104.5 135.192)"><g id="Group_1334" data-name="Group 1334" transform="translate(101.5 118.8)" opacity=".1"><circle id="Ellipse_189" data-name="Ellipse 189" cx="31.317" cy="31.317" r="31.317" transform="translate(0)" fill="#9862ff"/></g><g id="Group_1335" data-name="Group 1335" transform="translate(103.99 121.29)" opacity=".1"><circle id="Ellipse_190" data-name="Ellipse 190" cx="28.828" cy="28.828" r="28.828" transform="translate(0 0)" fill="#9862ff"/></g><g id="Group_1336" data-name="Group 1336" transform="translate(106.502 123.802)"><circle id="Ellipse_191" data-name="Ellipse 191" cx="26.315" cy="26.315" r="26.315" transform="translate(0)" fill="url(#linear-gradient-2)"/></g><g id="Group_1337" data-name="Group 1337" transform="translate(106.479 126.943)"><path id="Path_857" data-name="Path 857" d="M175.414 174.415a19.181 19.181.0 0 1-1.582 8.237c-4.746 10.935-18.753 15.4-31.271 9.958s-18.8-18.73-14.053-29.665a19.621 19.621.0 0 1 8.26-9.144 26.311 26.311.0 1 0 38.763 23.174A18.679 18.679.0 0 0 175.414 174.415z" transform="translate(-122.9 -153.8)" fill="#431789" opacity=".22"/></g><g id="Group_1347" data-name="Group 1347" transform="translate(108.671 126.003)"><g id="Group_1338" data-name="Group 1338" transform="translate(1.272 10.334)"><ellipse id="Ellipse_192" data-name="Ellipse 192" cx="6.654" cy="4.258" rx="6.654" ry="4.258" transform="translate(0 12.233) rotate(-66.809)" fill="#431789" opacity=".22"/><path id="Path_858" data-name="Path 858" d="M156.6 202.273c-2.094-.465-4.7 1.466-6.026 4.584-1.349 3.118-.931 6.329.838 7.538 2.094.465 4.7-1.466 6.026-4.584S158.365 203.483 156.6 202.273z" transform="translate(-146.984 -200.336)" fill="#431789" opacity=".49"/></g><g id="Group_1339" data-name="Group 1339" transform="translate(10.019 0)"><ellipse id="Ellipse_193" data-name="Ellipse 193" cx="4.653" cy="2.978" rx="4.653" ry="2.978" transform="translate(0 5.187) rotate(-33.87)" fill="#431789" opacity=".22"/><path id="Path_859" data-name="Path 859" d="M190.705 159.351c-1.047-1.07-3.327-.931-5.282.4-1.978 1.326-2.955 3.374-2.373 4.746 1.047 1.07 3.327.931 5.282-.4C190.31 162.772 191.287 160.724 190.705 159.351z" transform="translate(-181.138 -156.573)" fill="#431789" opacity=".49"/></g><g id="Group_1340" data-name="Group 1340" transform="translate(14.729 8.725)"><ellipse id="Ellipse_194" data-name="Ellipse 194" cx="3.118" cy="2.978" rx="3.118" ry="2.978" transform="matrix(0.362, -0.932, 0.932, 0.362, 0, 5.812)" fill="#431789" opacity=".22"/><path id="Path_860" data-name="Path 860" d="M206.217 192.23a3.136 3.136.0 1 0 1.326 3.839A3.077 3.077.0 0 0 206.217 192.23z" transform="translate(-200.848 -191.011)" fill="#431789" opacity=".49"/></g><g id="Group_1341" data-name="Group 1341" transform="translate(13.288 17.415)"><ellipse id="Ellipse_195" data-name="Ellipse 195" cx="2.141" cy="2.047" rx="2.141" ry="2.047" transform="translate(0 1.182) rotate(-16.028)" fill="#431789" opacity=".22"/><path id="Path_861" data-name="Path 861" d="M196.233 230.053a2.112 2.112.0 0 0-2.536-1.14 2.134 2.134.0 0 0-1.559 2.3 2.112 2.112.0 0 0 2.536 1.14A2.089 2.089.0 0 0 196.233 230.053z" transform="translate(-191.495 -227.845)" fill="#431789" opacity=".49"/></g><g id="Group_1342" data-name="Group 1342" transform="translate(21.032 5.208)"><ellipse id="Ellipse_196" data-name="Ellipse 196" cx="1.21" cy="1.163" rx="1.21" ry="1.163" transform="translate(0 0.668) rotate(-16.028)" fill="#431789" opacity=".22"/><path id="Path_862" data-name="Path 862" d="M226.556 175.2a1.206 1.206.0 0 0-1.443-.651 1.187 1.187.0 0 0-.861 1.3 1.206 1.206.0 0 0 1.443.651A1.173 1.173.0 0 0 226.556 175.2z" transform="translate(-223.884 -173.952)" fill="#431789" opacity=".49"/></g><g id="Group_1343" data-name="Group 1343" transform="translate(24.939 11.216)"><ellipse id="Ellipse_197" data-name="Ellipse 197" cx="1.21" cy="1.163" rx="1.21" ry="1.163" transform="translate(0 0.668) rotate(-16.028)" fill="#431789" opacity=".22"/><path id="Path_863" data-name="Path 863" d="M243.457 201.1a1.206 1.206.0 0 0-1.443-.651 1.187 1.187.0 0 0-.861 1.3 1.212 1.212.0 0 0 2.3-.651z" transform="translate(-240.76 -199.835)" fill="#431789" opacity=".49"/></g><g id="Group_1344" data-name="Group 1344" transform="translate(11.517 24.867)"><ellipse id="Ellipse_198" data-name="Ellipse 198" cx="1.21" cy="1.163" rx="1.21" ry="1.163" transform="translate(0 0.668) rotate(-16.028)" fill="#431789" opacity=".22"/><path id="Path_864" data-name="Path 864" d="M185.657 259.7a1.205 1.205.0 0 0-1.443-.651 1.187 1.187.0 0 0-.861 1.3 1.212 1.212.0 0 0 2.3-.651z" transform="translate(-182.986 -258.452)" fill="#431789" opacity=".49"/></g><g id="Group_1345" data-name="Group 1345" transform="translate(0 23.286)"><ellipse id="Ellipse_199" data-name="Ellipse 199" cx="1.21" cy="1.163" rx="1.21" ry="1.163" transform="translate(0 0.668) rotate(-16.028)" fill="#431789" opacity=".22"/><path id="Path_865" data-name="Path 865" d="M136.157 252.9a1.206 1.206.0 0 0-1.443-.651 1.187 1.187.0 0 0-.861 1.3 1.205 1.205.0 0 0 1.443.651A1.152 1.152.0 0 0 136.157 252.9z" transform="translate(-133.486 -251.653)" fill="#431789" opacity=".49"/></g><g id="Group_1346" data-name="Group 1346" transform="translate(6.395 7.072)"><ellipse id="Ellipse_200" data-name="Ellipse 200" cx="1.21" cy="1.163" rx="1.21" ry="1.163" transform="translate(0 0.668) rotate(-16.028)" fill="#431789" opacity=".22"/><path id="Path_866" data-name="Path 866" d="M163.657 183.3a1.205 1.205.0 0 0-1.443-.651 1.187 1.187.0 0 0-.861 1.3 1.205 1.205.0 0 0 1.443.651A1.165 1.165.0 0 0 163.657 183.3z" transform="translate(-160.983 -182.032)" fill="#431789" opacity=".49"/></g></g></g><g id="_3" data-name="3" transform="translate(95 4.591)"><g id="Group_1126" data-name="Group 1126" transform="translate(0 0)" opacity=".1"><circle id="Ellipse_161" data-name="Ellipse 161" cx="45.934" cy="45.934" r="45.934" fill="#bf1932"/></g><g id="Group_1127" data-name="Group 1127" transform="translate(3.636 3.636)" opacity=".1"><circle id="Ellipse_162" data-name="Ellipse 162" cx="42.298" cy="42.298" r="42.298" transform="translate(0 0)" fill="#bf1932"/></g><g id="Group_1128" data-name="Group 1128" transform="translate(7.339 7.339)"><circle id="Ellipse_163" data-name="Ellipse 163" cx="38.595" cy="38.595" r="38.595" transform="translate(0 0)" fill="url(#linear-gradient-3)"/></g><path id="Path_811" data-name="Path 811" d="M203.523 138.155a27.868 27.868.0 0 1-2.3 12.109c-6.972 16.045-27.52 22.617-45.9 14.611-18.38-7.973-27.587-27.487-20.615-43.532A28.845 28.845.0 0 1 146.848 107.9a38.6 38.6.0 1 0 56.842 34.025A28.511 28.511.0 0 0 203.523 138.155z" transform="translate(-119.195 -96.025)" fill="#933a48" opacity=".36"/><path id="Path_812" data-name="Path 812" d="M174.934 165.831c6.672-1.134 15.345-3 15.345-3s9.073 10.408 11.308 11.375c1.4.634 13.677 3 22.416 4.7a38.451 38.451.0 0 0 9.774-17.513l-2.835-7.572-20.382 1.7.2-11.608 8.206-1.7 4.47-9.874L211.428 123l-16.479 8.84L173.4 159.66z" transform="translate(-150.45 -106.088)" fill="#bf1932" opacity=".36"/><path id="Path_813" data-name="Path 813" d="M189.053 296.777a38.336 38.336.0 0 0 12.276-2l-1.5-4.3-11.809-1.5-13.11-6.672L162.4 286.1A38.525 38.525.0 0 0 189.053 296.777z" transform="translate(-143.119 -212.249)" fill="#bf1932" opacity=".36"/><path id="Path_814" data-name="Path 814" d="M153.353 99.7A38.6 38.6.0 0 0 126.5 136.46c0 1.268.067 2.5.167 3.7l10.074-1.067 16.612-27.287z" transform="translate(-119.195 -90.56)" fill="#bf1932" opacity=".36"/></g></g></svg>