<svg id="Слой_2" xmlns="http://www.w3.org/2000/svg" width="63.523" height="74.925" viewBox="0 0 63.523 74.925"><g id="Group_958" data-name="Group 958"><path id="Path_753" data-name="Path 753" d="M170.669 274.675l-8.938 5.148a1.468 1.468.0 0 1-2.211-1.263l-.221-71.975a1.483 1.483.0 0 1 1.484-1.484l9.443 7.674a1.452 1.452.0 0 1 .537 1.137z" transform="translate(-159.3 -205.1)" fill="#9ba9b5"/><path id="Path_754" data-name="Path 754" d="M169.616 352.472l-5.716-9.917L211.083 315.3l5.906 9.822z" transform="translate(-162.447 -280.497)" fill="#9ba9b5"/><path id="Path_755" data-name="Path 755" d="M259.608 282.271l8.59-4.99a1.466 1.466.0 0 0 .032-2.527l-36-22.2a1.492 1.492.0 0 0-2.148.758l-3.379 9.317z" transform="translate(-205.414 -237.425)" fill="#9ba9b5"/></g></svg>