<svg xmlns="http://www.w3.org/2000/svg" xmlns:xlink="http://www.w3.org/1999/xlink" width="697.104" height="125.564" viewBox="0 0 697.104 125.564"><defs><linearGradient id="linear-gradient" x1=".959" x2=".168" y2=".891" gradientUnits="objectBoundingBox"><stop offset="0" stop-color="#d8d8d8"/><stop offset=".438" stop-color="#f0efef"/><stop offset=".628" stop-color="#efefef"/><stop offset="1" stop-color="#d8d8d8"/></linearGradient><linearGradient id="linear-gradient-2" x1=".679" y1=".027" x2=".212" y2="1" gradientUnits="objectBoundingBox"><stop offset="0" stop-color="#f9fafa"/><stop offset="1" stop-color="#ddd"/></linearGradient><linearGradient id="linear-gradient-3" x1="1" y1=".355" x2=".142" y2="1" gradientUnits="objectBoundingBox"><stop offset="0" stop-color="#e1e1e1"/><stop offset="1" stop-color="#c5c5c5"/></linearGradient></defs><g id="_57" data-name="57" transform="translate(-14.685 -334.2)"><g id="Group_1348" data-name="Group 1348" transform="translate(685.738 334.2)"><path id="Path_869" data-name="Path 869" d="M463.05 356.815V341.6H437v15.215a8.265 8.265.0 0 0 8.3 8.3h9.221A8.463 8.463.0 0 0 463.05 356.815z" transform="translate(-437 -324.541)" fill="url(#linear-gradient)"/><path id="Rectangle_5" data-name="Rectangle 5" d="M0 0h17.981v17.059H0z" transform="translate(3.688)" fill="url(#linear-gradient-2)"/><path id="Rectangle_6" data-name="Rectangle 6" d="M0 0h4.15v9.452H0z" transform="translate(6.685 4.38)" fill="#adada7"/><path id="Rectangle_7" data-name="Rectangle 7" d="M0 0h4.15v9.452H0z" transform="translate(13.601 4.38)" fill="#adada7"/></g><path id="Path_870" data-name="Path 870" d="M14.685 436.008l667.624-2c14.573-.982 17.077 1.383 17.976-19.134h0c.674-25.128.9-62.474.9-62.474h-3.371s-.449 35.5-.9 59.477h0c-1.124 19.595-3.083 17.754-17.976 18.212l-664.254.641v5.278z" transform="translate(0 23.756)" fill="url(#linear-gradient-3)"/></g></svg>